<svg version="1.1" xmlns="http://www.w3.org/2000/svg" viewBox="0 0 1400.7318362551323 1322.2815824190886" width="1400.7318362551323" height="1322.2815824190886">
  <!-- svg-source:excalidraw -->
  
  <defs>
    <style class="style-fonts">
      @font-face {
        font-family: "Virgil";
        src: url("https://excalidraw.com/Virgil.woff2");
      }
      @font-face {
        font-family: "Cascadia";
        src: url("https://excalidraw.com/Cascadia.woff2");
      }
    </style>
    
  </defs>
  <rect x="0" y="0" width="1400.7318362551323" height="1322.2815824190886" fill="#ffffff"></rect><g stroke-linecap="round" transform="translate(404.4761904761888 494.17443956194575) rotate(0 194.375 155)"><path d="M166.34 1.82 C183.11 -2.49, 202.54 -0.25, 220.65 1.87 C238.75 3.98, 258.41 8.77, 274.94 14.52 C291.48 20.26, 306.22 26.86, 319.84 36.33 C333.46 45.8, 346.51 59.1, 356.67 71.35 C366.83 83.6, 375.61 96.06, 380.8 109.81 C385.99 123.56, 387.84 139.1, 387.81 153.86 C387.79 168.62, 385.68 184.23, 380.64 198.38 C375.61 212.54, 367.16 226.54, 357.6 238.79 C348.04 251.03, 336.81 262.4, 323.27 271.85 C309.73 281.3, 293.17 289.54, 276.36 295.49 C259.55 301.44, 240.56 305.22, 222.42 307.55 C204.28 309.87, 185.44 311.23, 167.5 309.44 C149.56 307.65, 131.34 302.87, 114.78 296.8 C98.23 290.72, 82.15 282.53, 68.19 272.99 C54.22 263.46, 41.1 251.81, 30.98 239.6 C20.85 227.39, 12.67 213.6, 7.44 199.74 C2.22 185.89, -0.33 171.09, -0.39 156.45 C-0.45 141.8, 2.03 126.02, 7.08 111.88 C12.12 97.73, 19.97 83.94, 29.9 71.6 C39.83 59.25, 53.05 47.47, 66.65 37.81 C80.24 28.16, 93.14 19.71, 111.48 13.64 C129.82 7.57, 164.28 3.03, 176.69 1.4 C189.1 -0.23, 185.77 1.24, 185.95 3.85 M190.32 -1.24 C207.67 -3.99, 227.11 -0.03, 244.57 4.13 C262.02 8.29, 279.25 16.08, 295.04 23.71 C310.84 31.34, 327.08 39.14, 339.34 49.91 C351.59 60.67, 360.72 74.81, 368.57 88.29 C376.42 101.77, 383.24 116.28, 386.44 130.8 C389.64 145.31, 390.28 160.97, 387.75 175.37 C385.23 189.78, 378.4 204.2, 371.31 217.23 C364.22 230.27, 356.5 242.47, 345.21 253.58 C333.92 264.69, 319 275.72, 303.57 283.87 C288.13 292.02, 270 297.97, 252.6 302.47 C235.2 306.97, 217.31 310.58, 199.17 310.85 C181.03 311.13, 161.47 308.25, 143.75 304.12 C126.03 299.99, 108.64 293.66, 92.85 286.06 C77.05 278.47, 61.11 269.33, 48.98 258.53 C36.85 247.73, 27.65 234.49, 20.08 221.29 C12.51 208.08, 6.6 193.44, 3.58 179.29 C0.55 165.14, -0.12 150.68, 1.94 136.38 C3.99 122.09, 8.68 106.68, 15.88 93.49 C23.09 80.31, 33.66 68.47, 45.18 57.27 C56.7 46.07, 69.88 34.88, 85.01 26.29 C100.15 17.69, 118.21 10.16, 135.99 5.72 C153.77 1.28, 182.53 0.17, 191.69 -0.36 C200.86 -0.9, 191.35 -0.34, 190.99 2.5" stroke="#1e1e1e" stroke-width="1" fill="none"></path></g><g transform="translate(533.2261904761888 632.9244395619457) rotate(0 58.067970275878906 22.5)"><text x="0" y="0" font-family="Virgil, Segoe UI Emoji" font-size="36px" fill="#1e1e1e" text-anchor="start" style="white-space: pre;" direction="ltr" dominant-baseline="text-before-edge">OFFER</text></g><g stroke-linecap="round"><g transform="translate(564.5765981992845 811.6557928592999) rotate(0 -59.17354674944487 92.49693447661008)"><path d="M1.13 1.19 C-18.78 31.78, -99.64 153.74, -119.48 184.23 M0.26 0.76 C-19.26 30.95, -97.39 152.2, -117.13 182.42" stroke="#1e1e1e" stroke-width="1" fill="none"></path></g><g transform="translate(564.5765981992845 811.6557928592999) rotate(0 -59.17354674944487 92.49693447661008)"><path d="M-108.43 152.03 C-111.26 163.54, -113.41 169.87, -116.11 183.65 M-111.3 153.36 C-112.04 160.61, -113.95 167.53, -117.43 183.09" stroke="#1e1e1e" stroke-width="1" fill="none"></path></g><g transform="translate(564.5765981992845 811.6557928592999) rotate(0 -59.17354674944487 92.49693447661008)"><path d="M-91.21 163.19 C-99.27 171.51, -106.58 174.5, -116.11 183.65 M-94.08 164.52 C-98.7 169.17, -104.59 173.5, -117.43 183.09" stroke="#1e1e1e" stroke-width="1" fill="none"></path></g></g><mask></mask><g transform="translate(349.38095238095184 1000.9958681333742) rotate(0 83.0159683227539 22.5)"><text x="0" y="0" font-family="Virgil, Segoe UI Emoji" font-size="36px" fill="#1e1e1e" text-anchor="start" style="white-space: pre;" direction="ltr" dominant-baseline="text-before-edge">IsRemote</text></g><g stroke-linecap="round"><g transform="translate(593.6366072256718 822.0755991881151) rotate(0 11.901024766993544 123.13836052489941)"><path d="M-0.91 -0.01 C3.24 41.04, 20.47 205, 24.72 245.79 M0.81 -1.06 C4.8 40.23, 19.85 206.24, 23.65 247.33" stroke="#1e1e1e" stroke-width="1" fill="none"></path></g><g transform="translate(593.6366072256718 822.0755991881151) rotate(0 11.901024766993544 123.13836052489941)"><path d="M10.85 219.83 C14.4 227.37, 16.28 236.77, 25.48 247.61 M9.95 221.04 C14.93 230.66, 20.1 241.45, 24.33 246.94" stroke="#1e1e1e" stroke-width="1" fill="none"></path></g><g transform="translate(593.6366072256718 822.0755991881151) rotate(0 11.901024766993544 123.13836052489941)"><path d="M31.29 217.96 C29.04 225.88, 25.13 235.81, 25.48 247.61 M30.38 219.17 C27.36 229.46, 24.53 240.98, 24.33 246.94" stroke="#1e1e1e" stroke-width="1" fill="none"></path></g></g><mask></mask><g transform="translate(566.8095238095233 1069.2815824190886) rotate(0 55.871978759765625 22.5)"><text x="0" y="0" font-family="Virgil, Segoe UI Emoji" font-size="36px" fill="#1e1e1e" text-anchor="start" style="white-space: pre;" direction="ltr" dominant-baseline="text-before-edge">Salary</text></g><g stroke-linecap="round"><g transform="translate(704.0413774119808 796.1835444007013) rotate(0 52.64286881773131 133.6906352684569)"><path d="M0.89 0.21 C18.54 44.5, 87.99 221.95, 105.38 266.52 M-0.1 -0.73 C17.46 43.71, 87.16 223.68, 104.61 268.11" stroke="#1e1e1e" stroke-width="1" fill="none"></path></g><g transform="translate(704.0413774119808 796.1835444007013) rotate(0 52.64286881773131 133.6906352684569)"><path d="M85.16 246.14 C90.29 251.63, 97.2 255.26, 105.3 269.71 M85.16 246.41 C92.58 253.59, 99.86 262.8, 104.23 267.71" stroke="#1e1e1e" stroke-width="1" fill="none"></path></g><g transform="translate(704.0413774119808 796.1835444007013) rotate(0 52.64286881773131 133.6906352684569)"><path d="M104.28 238.68 C104.49 246.25, 106.44 251.82, 105.3 269.71 M104.28 238.96 C104.8 248.83, 105.2 260.72, 104.23 267.71" stroke="#1e1e1e" stroke-width="1" fill="none"></path></g></g><mask></mask><g transform="translate(742.8095238095233 1073.2815824190884) rotate(0 72.16197204589844 22.5)"><text x="0" y="0" font-family="Virgil, Segoe UI Emoji" font-size="36px" fill="#1971c2" text-anchor="start" style="white-space: pre;" direction="ltr" dominant-baseline="text-before-edge">JobType</text></g><g stroke-linecap="round"><g transform="translate(878.0939396341796 1127.5672967048029) rotate(0 38.928915974188925 65.84684840928907)"><path d="M-1.06 0.44 C11.69 22.45, 63.55 110.31, 76.71 132.07 M0.58 -0.37 C13.68 21.32, 66.14 108.34, 78.92 130.43" stroke="#1e1e1e" stroke-width="1" fill="none"></path></g><g transform="translate(878.0939396341796 1127.5672967048029) rotate(0 38.928915974188925 65.84684840928907)"><path d="M56.46 109.81 C64.58 117.99, 70.04 125.17, 80.77 128.66 M54.77 111.6 C63.73 117.25, 69.1 121.96, 79.6 129.45" stroke="#1e1e1e" stroke-width="1" fill="none"></path></g><g transform="translate(878.0939396341796 1127.5672967048029) rotate(0 38.928915974188925 65.84684840928907)"><path d="M74.12 99.35 C76.67 110.68, 76.56 121.15, 80.77 128.66 M72.43 101.14 C76.12 110.05, 76.2 117.9, 79.6 129.45" stroke="#1e1e1e" stroke-width="1" fill="none"></path></g></g><mask></mask><g transform="translate(951.0952380952376 1262.9958681333742) rotate(0 30.709991455078125 12.5)"><text x="0" y="0" font-family="Virgil, Segoe UI Emoji" font-size="20px" fill="#1e1e1e" text-anchor="start" style="white-space: pre;" direction="ltr" dominant-baseline="text-before-edge">UI/UX</text></g><g stroke-linecap="round"><g transform="translate(798.0202407050679 1124.71015384766) rotate(0 4.017288919598343 72.98271867188481)"><path d="M-0.26 -0.32 C1.02 24.2, 6.99 123.12, 8.3 147.5 M1.8 -1.53 C2.94 22.6, 6.91 121, 7.75 145.71" stroke="#1e1e1e" stroke-width="1" fill="none"></path></g><g transform="translate(798.0202407050679 1124.71015384766) rotate(0 4.017288919598343 72.98271867188481)"><path d="M-4.1 119.21 C1.57 127.85, 2.94 136.39, 7.78 146.93 M-3.23 117.58 C0.69 126.72, 3.87 137.02, 8.7 146.07" stroke="#1e1e1e" stroke-width="1" fill="none"></path></g><g transform="translate(798.0202407050679 1124.71015384766) rotate(0 4.017288919598343 72.98271867188481)"><path d="M16.41 118.44 C14.87 127.3, 9.03 136.11, 7.78 146.93 M17.28 116.8 C14.37 126.07, 10.73 136.63, 8.7 146.07" stroke="#1e1e1e" stroke-width="1" fill="none"></path></g></g><mask></mask><g transform="translate(767.9523809523804 1272.9958681333742) rotate(0 46.83995056152344 12.5)"><text x="0" y="0" font-family="Virgil, Segoe UI Emoji" font-size="20px" fill="#1e1e1e" text-anchor="start" style="white-space: pre;" direction="ltr" dominant-baseline="text-before-edge">Developer</text></g><g stroke-linecap="round"><g transform="translate(769.1729577972624 1123.2815824190884) rotate(0 -57.43347460916766 79.36482533348999)"><path d="M-0.23 -0.65 C-19.51 25.79, -95.83 131.33, -114.64 157.99 M-1.8 1.63 C-20.78 28.29, -93.68 133.4, -112.28 159.38" stroke="#1e1e1e" stroke-width="1" fill="none"></path></g><g transform="translate(769.1729577972624 1123.2815824190884) rotate(0 -57.43347460916766 79.36482533348999)"><path d="M-105.53 129.31 C-108.11 143.11, -108.95 154.64, -112.98 160.01 M-105.35 130.1 C-106.74 139.38, -109.26 148.74, -111.84 158.7" stroke="#1e1e1e" stroke-width="1" fill="none"></path></g><g transform="translate(769.1729577972624 1123.2815824190884) rotate(0 -57.43347460916766 79.36482533348999)"><path d="M-88.74 141.12 C-97.76 150.32, -105.09 157.28, -112.98 160.01 M-88.56 141.91 C-95.04 147.69, -102.59 153.52, -111.84 158.7" stroke="#1e1e1e" stroke-width="1" fill="none"></path></g></g><mask></mask><g transform="translate(637.9523809523805 1287.2815824190886) rotate(0 14.269989013671875 12.5)"><text x="0" y="0" font-family="Virgil, Segoe UI Emoji" font-size="20px" fill="#1e1e1e" text-anchor="start" style="white-space: pre;" direction="ltr" dominant-baseline="text-before-edge">PM</text></g><g stroke-linecap="round"><g transform="translate(763.52588537149 739.7017641502207) rotate(0 105.21646165565465 119.43381672819177)"><path d="M0.97 0.04 C36.09 40.02, 175.72 200.14, 210.41 239.85 M0.02 -0.98 C35.02 38.69, 174.29 198.21, 209.52 238.26" stroke="#1e1e1e" stroke-width="1" fill="none"></path></g><g transform="translate(763.52588537149 739.7017641502207) rotate(0 105.21646165565465 119.43381672819177)"><path d="M183.3 224 C192.13 225.62, 196.72 231.9, 211.02 237.84 M182.68 224.21 C193.32 228.77, 201.34 233.21, 208.53 238.62" stroke="#1e1e1e" stroke-width="1" fill="none"></path></g><g transform="translate(763.52588537149 739.7017641502207) rotate(0 105.21646165565465 119.43381672819177)"><path d="M198.73 210.48 C203.34 215.92, 203.7 225.9, 211.02 237.84 M198.12 210.68 C203.19 219.94, 205.76 229.16, 208.53 238.62" stroke="#1e1e1e" stroke-width="1" fill="none"></path></g></g><mask></mask><g transform="translate(924.3333333333329 985.6625348000409) rotate(0 74.28598022460938 22.5)"><text x="0" y="0" font-family="Virgil, Segoe UI Emoji" font-size="36px" fill="#1e1e1e" text-anchor="start" style="white-space: pre;" direction="ltr" dominant-baseline="text-before-edge">Location</text></g><g stroke-linecap="round"><g transform="translate(424.6094093380383 736.6235903469835) rotate(0 -76.69534612586575 43.29625098014486)"><path d="M1.12 -1.05 C-24.49 13.73, -127.71 72.73, -153.61 87.65 M0.25 1.01 C-25.51 15.5, -128.58 71.36, -154.51 85.63" stroke="#1e1e1e" stroke-width="1" fill="none"></path></g><g transform="translate(424.6094093380383 736.6235903469835) rotate(0 -76.69534612586575 43.29625098014486)"><path d="M-136.44 63.26 C-140.58 69.19, -145.31 77.82, -153.05 87.46 M-135.29 63.07 C-140.59 70.03, -146.73 77.18, -154.8 84.86" stroke="#1e1e1e" stroke-width="1" fill="none"></path></g><g transform="translate(424.6094093380383 736.6235903469835) rotate(0 -76.69534612586575 43.29625098014486)"><path d="M-126.61 81.28 C-133.58 81.82, -141.29 84.97, -153.05 87.46 M-125.46 81.09 C-133.74 82.37, -143 83.8, -154.8 84.86" stroke="#1e1e1e" stroke-width="1" fill="none"></path></g></g><mask></mask><g transform="translate(123.33333333333348 830.7339633714694) rotate(0 108.4859619140625 22.5)"><text x="0" y="0" font-family="Virgil, Segoe UI Emoji" font-size="36px" fill="#1e1e1e" text-anchor="start" style="white-space: pre;" direction="ltr" dominant-baseline="text-before-edge">Created_at</text></g><g stroke-linecap="round"><g transform="translate(481.09638315827067 775.2275221933094) rotate(0 -165.02649687117534 161.5182899145779)"><path d="M0.03 0.57 C-54.97 54.11, -274.31 268.31, -329.11 322.08 M-1.41 -0.18 C-56.65 53.43, -275.42 269.68, -330.08 323.22" stroke="#1e1e1e" stroke-width="1" fill="none"></path></g><g transform="translate(481.09638315827067 775.2275221933094) rotate(0 -165.02649687117534 161.5182899145779)"><path d="M-316.24 296.05 C-323.1 306.72, -326.08 316.96, -331.04 324.93 M-317.93 295.55 C-319.65 303.81, -323.42 310.91, -330.63 324.01" stroke="#1e1e1e" stroke-width="1" fill="none"></path></g><g transform="translate(481.09638315827067 775.2275221933094) rotate(0 -165.02649687117534 161.5182899145779)"><path d="M-301.85 310.67 C-314.19 315.88, -322.55 320.64, -331.04 324.93 M-303.54 310.18 C-309.17 314.48, -316.77 317.69, -330.63 324.01" stroke="#1e1e1e" stroke-width="1" fill="none"></path></g></g><mask></mask><g transform="translate(10 1104.7339633714696) rotate(0 172.02593994140625 22.5)"><text x="0" y="0" font-family="Virgil, Segoe UI Emoji" font-size="36px" fill="#1e1e1e" text-anchor="start" style="white-space: pre;" direction="ltr" dominant-baseline="text-before-edge">Application_counter</text></g><g stroke-linecap="round"><g transform="translate(397.85589146137767 666.9252798078768) rotate(0 -61.783634195507354 -1.527429860858291)"><path d="M-0.14 0.06 C-20.49 -0.11, -102.38 -0.84, -122.74 -1.28 M-1.67 -0.95 C-22.08 -1.46, -103.28 -3.01, -123.43 -3.12" stroke="#1e1e1e" stroke-width="1" fill="none"></path></g><g transform="translate(397.85589146137767 666.9252798078768) rotate(0 -61.783634195507354 -1.527429860858291)"><path d="M-95 -12.19 C-101.21 -9.04, -110.32 -7.79, -124.49 -3.6 M-95.22 -13.31 C-102.78 -10.84, -108.51 -9.27, -124.11 -3.9" stroke="#1e1e1e" stroke-width="1" fill="none"></path></g><g transform="translate(397.85589146137767 666.9252798078768) rotate(0 -61.783634195507354 -1.527429860858291)"><path d="M-95.28 8.33 C-101.37 6.42, -110.41 2.61, -124.49 -3.6 M-95.5 7.21 C-103.01 4.67, -108.67 1.22, -124.11 -3.9" stroke="#1e1e1e" stroke-width="1" fill="none"></path></g></g><mask></mask><g transform="translate(170.33333333333337 661.7339633714694) rotate(0 51.3179931640625 22.5)"><text x="0" y="0" font-family="Virgil, Segoe UI Emoji" font-size="36px" fill="#1e1e1e" text-anchor="start" style="white-space: pre;" direction="ltr" dominant-baseline="text-before-edge">About</text></g><g stroke-linecap="round"><g transform="translate(443.92728312623854 538.2324530344973) rotate(0 -42.63327710427777 -90.8105543386078)"><path d="M0.01 0.62 C-14.1 -29.64, -71.16 -150.28, -85.28 -180.74 M-1.44 -0.1 C-15.13 -30.74, -68.97 -152.1, -82.99 -182.24" stroke="#1e1e1e" stroke-width="1" fill="none"></path></g><g transform="translate(443.92728312623854 538.2324530344973) rotate(0 -42.63327710427777 -90.8105543386078)"><path d="M-60.98 -162.14 C-65.49 -166.6, -73.11 -170.58, -84.7 -183.68 M-61.48 -160.59 C-70.35 -170.35, -78.49 -178.58, -83.81 -181.4" stroke="#1e1e1e" stroke-width="1" fill="none"></path></g><g transform="translate(443.92728312623854 538.2324530344973) rotate(0 -42.63327710427777 -90.8105543386078)"><path d="M-79.68 -153.67 C-79.52 -160.28, -82.42 -166.39, -84.7 -183.68 M-80.17 -152.12 C-81.53 -165.24, -82.21 -176.85, -83.81 -181.4" stroke="#1e1e1e" stroke-width="1" fill="none"></path></g></g><mask></mask><g transform="translate(221.66666666666674 304.06729670480274) rotate(334.36434717367354 128.28591918945312 22.5)"><text x="0" y="0" font-family="Virgil, Segoe UI Emoji" font-size="36px" fill="#1e1e1e" text-anchor="start" style="white-space: pre;" direction="ltr" dominant-baseline="text-before-edge">Responsibilities</text></g><g stroke-linecap="round"><g transform="translate(770.983442164523 722.9703514339658) rotate(0 100.89085214138433 56.85631985716057)"><path d="M-0.32 0.08 C33.25 19.04, 168.5 94.62, 202.1 113.56 M1.72 -0.92 C35.06 18.18, 167.48 95.37, 201.16 114.63" stroke="#1e1e1e" stroke-width="1" fill="none"></path></g><g transform="translate(770.983442164523 722.9703514339658) rotate(0 100.89085214138433 56.85631985716057)"><path d="M171.75 109.43 C180.79 110.05, 191.69 112.35, 201.43 113.33 M171.32 110.2 C179.5 111.27, 185.19 111.16, 201.23 115.55" stroke="#1e1e1e" stroke-width="1" fill="none"></path></g><g transform="translate(770.983442164523 722.9703514339658) rotate(0 100.89085214138433 56.85631985716057)"><path d="M182.02 91.66 C187.34 98.65, 194.54 107.36, 201.43 113.33 M181.59 92.43 C187.34 97.87, 190.57 102.04, 201.23 115.55" stroke="#1e1e1e" stroke-width="1" fill="none"></path></g></g><mask></mask><g transform="translate(898.3333333333333 844.0672967048029) rotate(0 70.68597412109375 22.5)"><text x="0" y="0" font-family="Virgil, Segoe UI Emoji" font-size="36px" fill="#1e1e1e" text-anchor="start" style="white-space: pre;" direction="ltr" dominant-baseline="text-before-edge">Company</text></g><g stroke-linecap="round"><g transform="translate(798.9602278657383 686.9846013864569) rotate(0 182.82182204629768 61.85329701072696)"><path d="M0.14 -0.69 C61.38 20.2, 305.82 103.55, 366.9 124.4 M-1.25 1.56 C59.87 22.19, 304.76 102.47, 365.91 122.61" stroke="#1e1e1e" stroke-width="1" fill="none"></path></g><g transform="translate(798.9602278657383 686.9846013864569) rotate(0 182.82182204629768 61.85329701072696)"><path d="M334.78 123.43 C344.64 122.65, 352.28 123.92, 367.19 123.08 M335.99 123.1 C342.15 122.75, 348.65 122.37, 365.71 122.3" stroke="#1e1e1e" stroke-width="1" fill="none"></path></g><g transform="translate(798.9602278657383 686.9846013864569) rotate(0 182.82182204629768 61.85329701072696)"><path d="M341.18 103.94 C349.26 108.13, 355.27 114.35, 367.19 123.08 M342.4 103.6 C347.09 107.53, 352.19 111.38, 365.71 122.3" stroke="#1e1e1e" stroke-width="1" fill="none"></path></g></g><mask></mask><g transform="translate(1113.3333333333333 814.0672967048029) rotate(0 45.269989013671875 22.5)"><text x="0" y="0" font-family="Virgil, Segoe UI Emoji" font-size="36px" fill="#1e1e1e" text-anchor="start" style="white-space: pre;" direction="ltr" dominant-baseline="text-before-edge">Tags</text></g><g stroke-linecap="round"><g transform="translate(420.90228959836224 564.5766485325721) rotate(0 -133.28074513464966 -16.75284677027861)"><path d="M-0.06 0.08 C-44.67 -5.53, -222.1 -28.11, -266.5 -33.58 M-1.55 -0.93 C-45.86 -6.38, -219.77 -26.63, -264.1 -32.29" stroke="#1e1e1e" stroke-width="1" fill="none"></path></g><g transform="translate(420.90228959836224 564.5766485325721) rotate(0 -133.28074513464966 -16.75284677027861)"><path d="M-234.75 -40.08 C-247.2 -37.38, -257.34 -33, -265.25 -31.5 M-235.39 -38.83 C-245.19 -36.88, -257 -34.13, -263.86 -33.1" stroke="#1e1e1e" stroke-width="1" fill="none"></path></g><g transform="translate(420.90228959836224 564.5766485325721) rotate(0 -133.28074513464966 -16.75284677027861)"><path d="M-237.23 -19.71 C-248.71 -25.05, -257.88 -28.72, -265.25 -31.5 M-237.86 -18.46 C-246.8 -24.37, -257.65 -29.5, -263.86 -33.1" stroke="#1e1e1e" stroke-width="1" fill="none"></path></g></g><mask></mask><g transform="translate(46.6666666666668 486.40063003813594) rotate(303.74421298615374 88.45196533203125 22.5)"><text x="0" y="0" font-family="Virgil, Segoe UI Emoji" font-size="36px" fill="#1e1e1e" text-anchor="start" style="white-space: pre;" direction="ltr" dominant-baseline="text-before-edge">Candidate</text></g><g stroke-linecap="round"><g transform="translate(801.0000000000003 642.0672967048026) rotate(0 153.58629146445531 2.5561624277383146)"><path d="M0.18 -1.1 C51.49 -0.18, 257.01 4.88, 308.36 6.21 M-1.18 0.94 C49.95 1.4, 256.12 3.52, 307.6 4.2" stroke="#1e1e1e" stroke-width="1" fill="none"></path></g><g transform="translate(801.0000000000003 642.0672967048026) rotate(0 153.58629146445531 2.5561624277383146)"><path d="M277.46 14.73 C289.26 11.15, 300.08 8.7, 306.48 3.8 M279.1 14.39 C287.68 10.44, 297.08 7.08, 307.84 4.27" stroke="#1e1e1e" stroke-width="1" fill="none"></path></g><g transform="translate(801.0000000000003 642.0672967048026) rotate(0 153.58629146445531 2.5561624277383146)"><path d="M277.7 -5.79 C289.54 -2.35, 300.28 2.21, 306.48 3.8 M279.33 -6.13 C287.82 -3.52, 297.15 -0.33, 307.84 4.27" stroke="#1e1e1e" stroke-width="1" fill="none"></path></g></g><mask></mask><g transform="translate(1017.0000000000001 602.0672967048026) rotate(45.206874518293205 119.24996185302734 22.5)"><text x="0" y="0" font-family="Virgil, Segoe UI Emoji" font-size="36px" fill="#1e1e1e" text-anchor="start" style="white-space: pre;" direction="ltr" dominant-baseline="text-before-edge">Company_logo</text></g><g stroke-linecap="round"><g transform="translate(762.4587729407967 557.2296898440788) rotate(0 65.96701702234856 -87.12288935459563)"><path d="M1.08 0.93 C22.92 -28.21, 110.09 -146.07, 131.74 -175.18 M0.19 0.37 C21.84 -28.63, 109.32 -144.81, 130.96 -174.18" stroke="#1e1e1e" stroke-width="1" fill="none"></path></g><g transform="translate(762.4587729407967 557.2296898440788) rotate(0 65.96701702234856 -87.12288935459563)"><path d="M123.88 -144.93 C123.77 -156.53, 129.29 -166, 129.01 -174.16 M123.13 -145.94 C124.93 -152.67, 127.64 -161.67, 130.87 -174.94" stroke="#1e1e1e" stroke-width="1" fill="none"></path></g><g transform="translate(762.4587729407967 557.2296898440788) rotate(0 65.96701702234856 -87.12288935459563)"><path d="M107.43 -157.2 C113.17 -164.56, 124.57 -169.65, 129.01 -174.16 M106.68 -158.21 C113.12 -161.4, 120.45 -166.95, 130.87 -174.94" stroke="#1e1e1e" stroke-width="1" fill="none"></path></g></g><mask></mask><g transform="translate(793.0000000000001 334.0672967048027) rotate(0 121.62596130371094 22.5)"><text x="0" y="0" font-family="Virgil, Segoe UI Emoji" font-size="36px" fill="#1971c2" text-anchor="start" style="white-space: pre;" direction="ltr" dominant-baseline="text-before-edge">Job_category</text></g><g stroke-linecap="round"><g transform="translate(905.0745543388723 326.0672967048027) rotate(0 -43.143714061723614 -75.1414082849398)"><path d="M0.98 0.85 C-13.23 -24.03, -71.91 -124.3, -86.24 -149.35 M0.03 0.24 C-14.26 -24.97, -73.06 -125.84, -87.26 -151.13" stroke="#1e1e1e" stroke-width="1" fill="none"></path></g><g transform="translate(905.0745543388723 326.0672967048027) rotate(0 -43.143714061723614 -75.1414082849398)"><path d="M-62.93 -132.02 C-68.18 -133.96, -73.3 -139.16, -86.97 -151.55 M-64.69 -132.66 C-71.88 -138.81, -79.71 -144.83, -87.22 -151.78" stroke="#1e1e1e" stroke-width="1" fill="none"></path></g><g transform="translate(905.0745543388723 326.0672967048027) rotate(0 -43.143714061723614 -75.1414082849398)"><path d="M-80.73 -121.81 C-82.13 -126.1, -83.41 -133.5, -86.97 -151.55 M-82.49 -122.45 C-83.37 -132.05, -84.93 -141.66, -87.22 -151.78" stroke="#1e1e1e" stroke-width="1" fill="none"></path></g></g><mask></mask><g transform="translate(715.0000000000003 124.06729670480274) rotate(0 85.8599624633789 22.5)"><text x="0" y="0" font-family="Virgil, Segoe UI Emoji" font-size="36px" fill="#1e1e1e" text-anchor="start" style="white-space: pre;" direction="ltr" dominant-baseline="text-before-edge">Internship</text></g><g stroke-linecap="round"><g transform="translate(946.4513432336878 328.06729670480263) rotate(0 49.525380479426246 -84.71512987725433)"><path d="M0.96 0.68 C17.57 -27.87, 82.57 -141.77, 99.05 -170.11 M0 -0.01 C16.5 -27.85, 81.43 -140.07, 97.99 -168.63" stroke="#1e1e1e" stroke-width="1" fill="none"></path></g><g transform="translate(946.4513432336878 328.06729670480263) rotate(0 49.525380479426246 -84.71512987725433)"><path d="M93.87 -139.47 C93.55 -145.48, 96.1 -154.53, 98.52 -167.04 M92.1 -139.82 C94.77 -150.63, 96.98 -160.75, 98.56 -168.34" stroke="#1e1e1e" stroke-width="1" fill="none"></path></g><g transform="translate(946.4513432336878 328.06729670480263) rotate(0 49.525380479426246 -84.71512987725433)"><path d="M76.11 -149.75 C80.26 -153.38, 87.17 -159.9, 98.52 -167.04 M74.34 -150.11 C83.56 -157.07, 92.34 -163.38, 98.56 -168.34" stroke="#1e1e1e" stroke-width="1" fill="none"></path></g></g><mask></mask><g transform="translate(993.0000000000001 104.06729670480274) rotate(0 65.37596130371094 22.5)"><text x="0" y="0" font-family="Virgil, Segoe UI Emoji" font-size="36px" fill="#1e1e1e" text-anchor="start" style="white-space: pre;" direction="ltr" dominant-baseline="text-before-edge">Fulltime</text></g><g stroke-linecap="round"><g transform="translate(999.7639794119217 326.06729670480263) rotate(0 119.88444268499688 -118.67895621835038)"><path d="M-1 -0.83 C38.65 -40.45, 198.36 -197.36, 238.66 -236.81 M0.67 1.35 C40.62 -38.71, 200.8 -199.09, 240.77 -238.71" stroke="#1e1e1e" stroke-width="1" fill="none"></path></g><g transform="translate(999.7639794119217 326.06729670480263) rotate(0 119.88444268499688 -118.67895621835038)"><path d="M226.67 -213.44 C233.15 -219.65, 236.54 -231.78, 242.34 -240.64 M228.78 -210.6 C231.85 -217.01, 233.1 -223.28, 239.79 -238.32" stroke="#1e1e1e" stroke-width="1" fill="none"></path></g><g transform="translate(999.7639794119217 326.06729670480263) rotate(0 119.88444268499688 -118.67895621835038)"><path d="M212.18 -227.97 C224 -228.81, 232.62 -235.7, 242.34 -240.64 M214.29 -225.13 C220.31 -228.58, 224.61 -231.79, 239.79 -238.32" stroke="#1e1e1e" stroke-width="1" fill="none"></path></g></g><mask></mask><g transform="translate(1165 34.06729670480274) rotate(15.956189272376387 90.70195770263672 22.5)"><text x="0" y="0" font-family="Virgil, Segoe UI Emoji" font-size="36px" fill="#1e1e1e" text-anchor="start" style="white-space: pre;" direction="ltr" dominant-baseline="text-before-edge">Engineering</text></g><g stroke-linecap="round"><g transform="translate(1047 365.7041355660189) rotate(0 138.73531927759808 -7.541281943710274)"><path d="M0.33 0.23 C46.22 -2.36, 229.97 -12.85, 276.28 -15.31 M-0.95 -0.7 C45.2 -3.11, 231.95 -11.19, 278.42 -13.83" stroke="#1e1e1e" stroke-width="1" fill="none"></path></g><g transform="translate(1047 365.7041355660189) rotate(0 138.73531927759808 -7.541281943710274)"><path d="M251.15 -4.01 C261.1 -5.3, 272.93 -11.5, 277.88 -15.02 M250.75 -2.5 C259.53 -5.97, 265.64 -8.05, 278.61 -14.42" stroke="#1e1e1e" stroke-width="1" fill="none"></path></g><g transform="translate(1047 365.7041355660189) rotate(0 138.73531927759808 -7.541281943710274)"><path d="M250.14 -24.5 C260.51 -18, 272.72 -16.4, 277.88 -15.02 M249.74 -22.99 C258.95 -20.57, 265.35 -16.75, 278.61 -14.42" stroke="#1e1e1e" stroke-width="1" fill="none"></path></g></g><mask></mask><g transform="translate(1277 306.06729670480274) rotate(81.6764262552487 79.90196990966797 22.5)"><text x="0" y="0" font-family="Virgil, Segoe UI Emoji" font-size="36px" fill="#1e1e1e" text-anchor="start" style="white-space: pre;" direction="ltr" dominant-baseline="text-before-edge">Marketer</text></g><g stroke-linecap="round"><g transform="translate(783.0000000000001 338.5566601750469) rotate(0 -99.52741560883437 -45.79350281999499)"><path d="M-0.7 -0.61 C-34.11 -15.79, -166.08 -76.56, -199.37 -91.74 M1.13 1.68 C-32.51 -13.74, -167 -77.42, -200.19 -93.27" stroke="#1e1e1e" stroke-width="1" fill="none"></path></g><g transform="translate(783.0000000000001 338.5566601750469) rotate(0 -99.52741560883437 -45.79350281999499)"><path d="M-171.34 -90.04 C-180.1 -93.11, -191.69 -94.29, -201.33 -91.87 M-169.56 -90.99 C-177.63 -90.7, -185.74 -91.32, -199.33 -92.72" stroke="#1e1e1e" stroke-width="1" fill="none"></path></g><g transform="translate(783.0000000000001 338.5566601750469) rotate(0 -99.52741560883437 -45.79350281999499)"><path d="M-180.15 -71.5 C-185.35 -81.77, -193.5 -90.19, -201.33 -91.87 M-178.37 -72.45 C-184.25 -77.1, -190.04 -82.61, -199.33 -92.72" stroke="#1e1e1e" stroke-width="1" fill="none"></path></g></g><mask></mask><g transform="translate(481.00000000000034 180.06729670480274) rotate(0 73.60028839111328 22.809866302701522)"><text x="0" y="0" font-family="Virgil, Segoe UI Emoji" font-size="36.49578608432245px" fill="#1e1e1e" text-anchor="start" style="white-space: pre;" direction="ltr" dominant-baseline="text-before-edge">Designer</text></g></svg>