<svg width="126" height="39" viewBox="0 0 126 39" fill="none" xmlns="http://www.w3.org/2000/svg">
<path d="M43.7314 19.1277C43.6658 17.3254 44.3186 15.5707 45.5462 14.2496C46.7739 12.9284 48.4758 12.1487 50.2781 12.0819H50.5495C51.9212 11.987 53.2828 12.3749 54.3986 13.1784C55.5143 13.982 56.3138 15.1504 56.6585 16.4815L54.4905 17.2114C54.3016 16.3254 53.7985 15.5376 53.0742 14.9935C52.3499 14.4494 51.4531 14.1857 50.5495 14.2511C49.9236 14.253 49.305 14.3851 48.7328 14.6389C48.1607 14.8927 47.6475 15.2627 47.226 15.7254C46.8045 16.1881 46.4838 16.7334 46.2842 17.3267C46.0847 17.9199 46.0106 18.5482 46.0668 19.1715C46.0065 19.7945 46.0788 20.4232 46.279 21.0162C46.4792 21.6093 46.8027 22.1531 47.2283 22.6121C47.6539 23.0711 48.1718 23.4347 48.748 23.679C49.3243 23.9233 49.9457 24.0428 50.5715 24.0296C51.4806 24.0512 52.3712 23.77 53.103 23.2301C53.8348 22.6902 54.3664 21.9223 54.6141 21.0473L56.7198 21.7404C56.356 23.0792 55.5456 24.2536 54.423 25.0688C53.3004 25.8841 51.933 26.2913 50.5472 26.223C49.6658 26.24 48.7897 26.0832 47.9689 25.7615C47.1482 25.4398 46.3988 24.9595 45.7637 24.3481C45.1286 23.7367 44.6202 23.0062 44.2675 22.1982C43.9148 21.3903 43.7248 20.5208 43.7083 19.6393C43.7048 19.4724 43.7117 19.3053 43.729 19.1392" fill="#AAAAAA"/>
<path d="M60.9346 25.9007H58.6614V12.0403H60.9346V17.4828C61.2576 17.0989 61.6642 16.794 62.1233 16.5916C62.5824 16.3892 63.0818 16.2946 63.5831 16.3151C64.0608 16.2981 64.5365 16.3843 64.9779 16.5679C65.4192 16.7516 65.8158 17.0283 66.1404 17.3791C66.4651 17.73 66.7102 18.1468 66.8591 18.601C67.008 19.0552 67.0571 19.5362 67.0031 20.0112V25.9007H64.7924V20.375C64.8599 19.9025 64.7377 19.4224 64.4525 19.0396C64.1672 18.6568 63.7422 18.4023 63.2701 18.3318C63.1388 18.3111 63.0051 18.3111 62.8739 18.3318C62.3603 18.3342 61.8684 18.5393 61.5053 18.9025C61.1421 19.2657 60.937 19.7575 60.9346 20.2711V25.9007Z" fill="#AAAAAA"/>
<path d="M71.9225 20.5681L74.3203 20.1927C74.862 20.1304 75.0134 19.8381 75.0134 19.5251C75.0134 18.7328 74.4924 18.1067 73.2415 18.1067C72.7783 18.0688 72.3186 18.2132 71.9602 18.5092C71.6019 18.8052 71.3732 19.2294 71.323 19.6914V19.7746L69.3006 19.3126C69.4494 18.4042 69.9361 17.5856 70.6631 17.021C71.3902 16.4563 72.3037 16.1873 73.2207 16.2679C76.0979 16.2679 77.1825 17.8942 77.1825 19.7919V24.4213C77.1722 24.9248 77.214 25.428 77.3073 25.9229H75.2432C75.1637 25.532 75.1358 25.1325 75.1601 24.7343C74.8477 25.2071 74.419 25.5917 73.9151 25.851C73.4112 26.1103 72.8492 26.2357 72.2829 26.2151C71.513 26.2767 70.7497 26.0337 70.157 25.5384C69.5643 25.0432 69.1896 24.3352 69.1134 23.5666V23.4211C69.0926 21.6885 70.3228 20.7933 71.9283 20.5646M74.9937 22.0662V21.6492L72.5543 22.0038C72.2233 22.0167 71.9096 22.1552 71.6771 22.3913C71.4447 22.6274 71.3111 22.9432 71.3034 23.2744C71.3029 23.4368 71.3354 23.5977 71.3986 23.7474C71.4619 23.897 71.5546 24.0323 71.6714 24.1453C71.7882 24.2582 71.9267 24.3464 72.0784 24.4045C72.2301 24.4627 72.3919 24.4896 72.5543 24.4837H72.6582C72.9364 24.5168 73.2185 24.4943 73.488 24.4177C73.7574 24.341 74.009 24.2116 74.2282 24.0371C74.4473 23.8625 74.6297 23.6462 74.7646 23.4007C74.8996 23.1552 74.9846 22.8853 75.0145 22.6068V22.5652C75.0493 22.3993 75.0421 22.2274 74.9937 22.065V22.0662Z" fill="#AAAAAA"/>
<path d="M80.9514 11.8521C81.2389 11.846 81.5218 11.9254 81.764 12.0804C82.0062 12.2355 82.1968 12.459 82.3116 12.7227C82.4264 12.9863 82.4602 13.2782 82.4087 13.5611C82.3572 13.844 82.2226 14.1052 82.0222 14.3115C81.8219 14.5177 81.5647 14.6597 81.2834 14.7194C81.002 14.7791 80.7094 14.7537 80.4425 14.6466C80.1756 14.5394 79.9467 14.3554 79.7847 14.1177C79.6228 13.8801 79.5352 13.5997 79.533 13.3121C79.5271 13.1223 79.5595 12.9332 79.6282 12.7562C79.6968 12.5791 79.8004 12.4177 79.9328 12.2815C80.0651 12.1453 80.2235 12.037 80.3985 11.9633C80.5735 11.8895 80.7615 11.8517 80.9514 11.8521ZM79.8668 25.9436V16.5878H82.0983V25.9078L79.8668 25.9436Z" fill="#AAAAAA"/>
<path d="M87.1447 25.9044H84.9131V16.5844H87.0811V17.8353C87.3666 17.3629 87.7711 16.9737 88.2541 16.7066C88.7371 16.4394 89.2817 16.3037 89.8336 16.3129C92.1067 16.3129 93.1901 17.96 93.1901 20.0091V25.9044H90.9794V20.3787C91.0191 20.111 90.9981 19.8378 90.918 19.5793C90.8378 19.3209 90.7005 19.0837 90.5163 18.8855C90.332 18.6873 90.1055 18.5331 89.8536 18.4343C89.6017 18.3354 89.3307 18.2945 89.0609 18.3146C88.538 18.3177 88.0378 18.5279 87.6697 18.8992C87.3016 19.2706 87.0958 19.7727 87.0973 20.2955V20.5265L87.1447 25.9044Z" fill="#AAAAAA"/>
<path d="M98.1326 12.0403H95.9218V25.9065H98.1326V12.0403Z" fill="#AAAAAA"/>
<path d="M102.115 11.8521C102.402 11.85 102.683 11.933 102.922 12.0906C103.162 12.2482 103.349 12.4733 103.461 12.7373C103.572 13.0014 103.603 13.2926 103.549 13.5742C103.495 13.8558 103.359 14.1151 103.158 14.3192C102.957 14.5234 102.699 14.6633 102.418 14.7213C102.138 14.7792 101.846 14.7526 101.58 14.6448C101.315 14.537 101.087 14.3528 100.926 14.1156C100.765 13.8784 100.678 13.5988 100.676 13.3121V13.2913C100.675 13.1019 100.711 12.9141 100.783 12.7389C100.855 12.5636 100.96 12.4044 101.094 12.2705C101.228 12.1366 101.388 12.0307 101.563 11.9588C101.738 11.887 101.926 11.8507 102.115 11.8521ZM101.01 25.9436V16.5878H103.217V25.9078L101.01 25.9436Z" fill="#AAAAAA"/>
<path d="M108.308 25.9044H106.098V16.5844H108.266V17.8353C108.551 17.3629 108.956 16.9737 109.439 16.7066C109.922 16.4394 110.466 16.3037 111.018 16.3129C113.291 16.3129 114.397 17.96 114.397 20.0091V25.9044H112.186V20.3787C112.253 19.9061 112.131 19.426 111.846 19.0432C111.561 18.6604 111.136 18.406 110.664 18.3354C110.532 18.3146 110.399 18.3146 110.267 18.3354C110.01 18.3337 109.755 18.3834 109.518 18.4818C109.28 18.5802 109.064 18.7251 108.884 18.9081C108.703 19.0912 108.561 19.3085 108.465 19.5474C108.37 19.7863 108.323 20.0418 108.328 20.299V20.53L108.308 25.9044Z" fill="#AAAAAA"/>
<path d="M121.966 20.5056L125.886 25.9065H123.154L120.423 22.0487L119.276 23.258V25.9007H117.066V12.0403H119.277V20.3392L122.863 16.5865H125.803L121.966 20.5056Z" fill="#AAAAAA"/>
<path d="M17.4173 8.28651L27.0296 13.8122V24.8844L17.4589 30.4286L7.84667 24.9653V13.8538L17.4173 8.28651ZM17.4173 0.155029L13.8933 2.19831L4.30647 7.76558L0.777832 9.80884V29.0125L4.30185 31.035L13.9141 36.5399L17.4381 38.5624L20.9621 36.5191L30.5328 30.9518L34.0568 28.9086V9.6841L30.5328 7.66278L20.9205 2.13708L17.4173 0.155029Z" fill="#AAAAAA"/>
</svg>
