<svg width="76" height="22" viewBox="0 0 76 22" fill="none" xmlns="http://www.w3.org/2000/svg">
<path d="M0.888916 1.18328H6.48046V4.01082C6.78788 3.57545 7.13178 3.16702 7.50844 2.78994C7.90803 2.41259 8.338 2.06876 8.794 1.76196C9.27638 1.46196 9.79491 1.22443 10.3371 1.05507C10.9636 0.874984 11.6131 0.788194 12.2649 0.7975C13.1802 0.742167 14.0965 0.885845 14.951 1.21864C15.8054 1.55143 16.5775 2.06543 17.2142 2.72526C18.4398 4.22372 19.0582 6.12774 18.9468 8.06038V20.849H13.3633V9.92231C13.4303 8.84074 13.1115 7.77049 12.4636 6.90188C12.1515 6.55112 11.7636 6.2762 11.3292 6.09806C10.8949 5.91991 10.4256 5.84325 9.95712 5.8739C9.47968 5.84884 9.0025 5.92778 8.55857 6.10527C8.11464 6.28276 7.71456 6.55456 7.38601 6.90188C6.67822 7.74179 6.3315 8.82763 6.42155 9.92231V20.9125H0.888916V1.18328ZM32.7045 21.2994C31.2975 21.2986 29.9029 21.037 28.5914 20.5279C27.3567 20.0694 26.2377 19.3455 25.3134 18.4072C24.385 17.4866 23.643 16.3956 23.128 15.1939C22.6132 13.884 22.3514 12.4883 22.3565 11.0808V11.0161C22.3668 9.65758 22.6058 8.31046 23.0633 7.03124C23.5242 5.82727 24.1992 4.71668 25.0558 3.75324C25.9561 2.79906 27.0419 2.03894 28.2465 1.51954C29.4512 1.00014 30.7492 0.732423 32.0611 0.732818C33.5285 0.670007 34.988 0.979538 36.3036 1.63259C37.4683 2.19527 38.4968 3.00427 39.3181 4.00362C40.1394 5.00297 40.7337 6.16881 41.06 7.42049C41.4495 8.73484 41.6441 10.0992 41.6375 11.4701V12.1769C41.648 12.4358 41.6263 12.695 41.5728 12.9485H27.9434C28.1194 14.0863 28.7158 15.1167 29.6147 15.8361C30.5239 16.5075 31.6353 16.8478 32.7645 16.8006C33.6212 16.813 34.4722 16.6601 35.271 16.3501C36.1068 15.9743 36.8696 15.4538 37.5244 14.8127L40.7377 17.6357C39.83 18.7903 38.6631 19.715 37.3315 20.335C35.8947 21.0401 34.3034 21.3718 32.7045 21.2994ZM36.3036 9.47299C36.1802 8.34981 35.708 7.29351 34.9533 6.45257C34.5974 6.06217 34.1589 5.75595 33.6698 5.55616C33.1807 5.35637 32.6533 5.26802 32.1258 5.29753C31.5983 5.26802 31.0708 5.35637 30.5817 5.55616C30.0927 5.75595 29.6542 6.06217 29.2982 6.45257C28.5254 7.28859 28.0314 8.34403 27.8845 9.47299H36.3036ZM45.2424 1.18328H50.8339V4.01082C51.155 3.56035 51.5408 3.17572 51.8619 2.78994C52.2615 2.41259 52.6915 2.06877 53.1475 1.76196C53.6361 1.47378 54.1533 1.23689 54.6906 1.05507C56.4564 0.563066 58.3438 0.769881 59.9611 1.63259C60.9183 2.1485 61.6844 2.95833 62.1464 3.94267C62.9253 2.95017 63.9106 2.13873 65.034 1.56445C66.1542 1.02153 67.3888 0.756859 68.6331 0.79288C69.5321 0.747778 70.4306 0.890228 71.2715 1.21117C72.1124 1.53212 72.8774 2.02453 73.5177 2.65711C74.7727 4.16433 75.3938 6.09973 75.2503 8.05576V20.9137H69.6611V9.92346C69.7468 8.84975 69.4511 7.78019 68.826 6.90303C68.5268 6.5535 68.1502 6.27859 67.7261 6.10013C67.302 5.92168 66.8422 5.84461 66.3831 5.87505C65.9146 5.8444 65.4453 5.92107 65.011 6.09921C64.5766 6.27736 64.1887 6.55228 63.8766 6.90303C63.2191 7.76678 62.8992 8.8407 62.9769 9.92346V20.9137H57.3853V9.92346C57.471 8.84976 57.1753 7.78023 56.5502 6.90303C56.251 6.5535 55.8744 6.27859 55.4503 6.10013C55.0263 5.92168 54.5664 5.84461 54.1073 5.87505C53.6389 5.8444 53.1696 5.92107 52.7352 6.09921C52.3009 6.27736 51.9129 6.55228 51.6009 6.90303C50.9433 7.76678 50.6234 8.8407 50.7011 9.92346V20.9137H45.2424V1.18328Z" fill="#AAAAAA"/>
</svg>
