<svg width="120" height="30" viewBox="0 0 120 30" fill="none" xmlns="http://www.w3.org/2000/svg">
<g clip-path="url(#clip0_503_75)">
<path d="M30.4565 3.9238L26.1873 6.10272L5.57618 16.5987C5.50532 16.0673 5.46989 15.5358 5.46989 14.9955C5.47875 8.21078 10.988 2.71919 17.7639 2.72805C19.8542 2.72805 21.9091 3.26835 23.7338 4.28695L26.1784 3.03806L26.5415 2.85205C19.8365 -2.01066 10.4566 -0.522616 5.5939 6.18243C3.73385 8.74222 2.73297 11.8335 2.73297 14.9955C2.73297 15.3764 2.75069 15.7573 2.77726 16.1381C2.85697 17.2365 2.27239 18.2728 1.29808 18.7776L0.0137634 19.4331V22.4978L3.80471 20.5668L5.03588 19.938L6.24934 19.3179L27.9853 8.24621L30.4299 7.00617L35.4786 4.43753V1.37287L30.4742 3.9238H30.4565Z" fill="#AAAAAA"/>
<path d="M35.4605 7.5022L7.47124 21.7537L5.02661 23.0026L0.00448608 25.5624V28.6271L4.99118 26.085L9.26042 23.9061L29.8981 13.3924C29.9689 13.9238 30.0044 14.4641 30.0044 15.0044C30.0044 21.7892 24.4951 27.2808 17.7192 27.2808C15.62 27.2808 13.5562 26.7405 11.7228 25.713L11.5722 25.7927L8.92385 27.139C15.6289 32.0018 25.0088 30.5137 29.8715 23.8175C31.7315 21.2577 32.7324 18.1754 32.7324 15.0133C32.7324 14.6235 32.7147 14.2427 32.6881 13.8618C32.6084 12.7635 33.193 11.7272 34.1673 11.2223L35.4605 10.5669V7.51105V7.5022Z" fill="#AAAAAA"/>
<path d="M77.6129 9.62793C73.3348 9.62793 70.0132 12.7812 70.0132 17.7502C70.0132 22.3826 72.7502 25.9344 77.7014 25.9344C81.519 25.9344 84.0167 23.6935 84.7165 21.0097H81.9795C81.3064 22.5509 80.0309 23.6049 77.7014 23.6049C75.3985 23.6049 72.9539 21.9751 72.8653 18.6005H84.9202C85.239 13.6226 82.4135 9.62793 77.6129 9.62793ZM72.8919 16.3241C73.1222 13.1709 75.2834 11.8954 77.6129 11.8954C80.4384 11.8954 82.0415 14.1098 82.1301 16.3241H72.9007H72.8919Z" fill="#AAAAAA"/>
<path d="M53.8928 13.4454L51.4571 12.8963C49.473 12.4622 48.0027 11.5322 48.0027 9.6633C48.0027 7.30724 50.8548 6.57207 52.4845 6.57207C54.5837 6.57207 57.0283 7.41353 57.7281 9.83159H60.6156C59.7653 5.78376 56.4172 4.06543 52.6085 4.06543C49.1984 4.06543 44.9823 5.78376 44.9823 9.83159C44.9823 13.3303 47.861 14.96 50.775 15.5978L53.4057 16.1469C56.054 16.7581 57.9495 17.635 57.9495 19.8759C57.9495 21.9751 56.1692 23.4277 53.0248 23.4277C49.7299 23.4277 47.7547 21.9131 47.1967 18.999H44.2737C44.8229 23.1974 47.9761 25.9343 52.954 25.9343C57.1523 25.9343 60.9964 23.72 60.9964 19.6102C60.9964 15.3586 57.1258 14.1363 53.8928 13.4366V13.4454Z" fill="#AAAAAA"/>
<path d="M66.6917 5.96094H64.0434V9.89362H61.5633V12.0194H64.0434V21.6297C64.0434 24.8892 64.7431 25.5624 67.7457 25.5624H69.6678V23.348H68.3303C66.8157 23.348 66.7006 22.9406 66.7006 21.3108V12.0194H69.6678V9.89362H66.7006V5.96094H66.6917Z" fill="#AAAAAA"/>
<path d="M119.207 9.80508C117.134 9.89365 115.567 10.8591 114.778 12.6306V9.89365H112.183V25.5624H114.831V17.3516C114.831 13.8529 116.054 12.5509 118.498 12.5509C118.994 12.5509 119.49 12.5863 119.986 12.666V9.83165C119.721 9.80508 119.464 9.79622 119.198 9.80508H119.207Z" fill="#AAAAAA"/>
<path d="M109.632 19.6544L109.659 16.0406C109.685 11.5853 107.825 9.57471 103.423 9.57471C100.394 9.57471 97.3647 11.4702 97.1345 14.8449H99.8714C99.9865 12.8962 101.244 11.7271 103.45 11.7271C105.434 11.7271 107.002 12.6571 107.002 15.5446V15.9255C100.598 16.6252 96.3993 17.7235 96.3993 21.4348C96.3993 24.3134 98.8439 25.952 101.785 25.952C104.583 25.952 106.187 25.0486 107.143 23.4188C107.17 24.1363 107.232 24.8626 107.347 25.5712H110.022C109.703 24.0831 109.588 22.3028 109.614 19.6633L109.632 19.6544ZM107.214 19.0167C107.214 22.7102 104.858 23.8528 102.378 23.8528C100.483 23.8528 99.3488 22.8608 99.3488 21.3728C99.3488 19.2204 102.405 18.4941 107.214 18.0247V19.0167Z" fill="#AAAAAA"/>
<path d="M86.7005 4.42871H89.3577V25.5625H86.7005V4.42871Z" fill="#AAAAAA"/>
<path d="M92.006 4.42871H94.6544V25.5625H92.006V4.42871Z" fill="#AAAAAA"/>
</g>
<defs>
<clipPath id="clip0_503_75">
<rect width="120" height="30" fill="white"/>
</clipPath>
</defs>
</svg>
