<svg width="139" height="29" viewBox="0 0 139 29" fill="none" xmlns="http://www.w3.org/2000/svg">
<g clip-path="url(#clip0_503_104)">
<path d="M24.6173 8.84768C24.0119 8.48072 23.2322 8.48072 22.5755 8.84768L17.8764 11.6712L14.6855 13.5162L9.98642 16.3398C9.38108 16.7067 8.60131 16.7067 7.94466 16.3398L4.21 14.1278C3.60465 13.7609 3.18399 13.0881 3.18399 12.344V7.99144C3.18399 7.25752 3.54309 6.58477 4.21 6.20761L7.8831 4.05682C8.48845 3.68986 9.26822 3.68986 9.92486 4.05682L13.598 6.20761C14.2033 6.57457 14.624 7.24733 14.624 7.99144V10.815L17.8149 8.90884V6.08529C17.8149 5.35137 17.4558 4.67861 16.7889 4.30146L9.98642 0.254712C9.38108 -0.112248 8.60131 -0.112248 7.94466 0.254712L1.01911 4.30146C0.352206 4.66842 -0.00689697 5.34118 -0.00689697 6.08529V14.2501C-0.00689697 14.9841 0.352206 15.6568 1.01911 16.034L7.94466 20.0807C8.55001 20.4477 9.32978 20.4477 9.98642 20.0807L14.6855 17.3183L17.8764 15.4122L22.5755 12.6498C23.1809 12.2828 23.9606 12.2828 24.6173 12.6498L28.2904 14.8006C28.8957 15.1675 29.3164 15.8403 29.3164 16.5844V20.9472C29.3164 21.6811 28.9573 22.3538 28.2904 22.731L24.6173 24.9429C24.0119 25.3099 23.2322 25.3099 22.5755 24.9429L18.9024 22.7921C18.2971 22.4252 17.8764 21.7524 17.8764 21.0083V18.1848L14.6855 20.0909V22.9145C14.6855 23.6484 15.0446 24.3211 15.7115 24.6983L22.6371 28.745C23.2424 29.112 24.0222 29.112 24.6789 28.745L31.6044 24.6983C32.2098 24.3313 32.6304 23.6586 32.6304 22.9145V14.7496C32.6304 14.0157 32.2713 13.3429 31.6044 12.9658L24.6276 8.85788L24.6173 8.84768Z" fill="#AAAAAA"/>
<path d="M45.3324 26.4006V19.622C46.0711 20.5496 47.3947 21.0695 48.944 21.0695C52.8838 21.0695 55.5515 18.2663 55.5515 13.9953C55.5515 9.72431 53.1096 6.92114 49.2723 6.92114C47.5075 6.92114 46.143 7.57352 45.3324 8.63362V7.1352H41.5567V26.4006H45.3324ZM48.4823 17.7974C46.4405 17.7974 45.1067 16.2684 45.1067 13.9851C45.1067 11.6712 46.4405 10.1524 48.4823 10.1524C50.4625 10.1524 51.827 11.6814 51.827 13.9851C51.827 16.2684 50.4727 17.7974 48.4823 17.7974Z" fill="#AAAAAA"/>
<path d="M64.1391 21.0695C68.356 21.0695 71.3725 18.0726 71.3725 13.9953C71.3725 9.91798 68.356 6.92114 64.1391 6.92114C59.9222 6.92114 56.9058 9.91798 56.9058 13.9953C56.9058 18.0726 59.9222 21.0695 64.1391 21.0695ZM64.1391 17.8076C62.0974 17.8076 60.7123 16.2582 60.7123 13.9953C60.7123 11.712 62.0974 10.1626 64.1391 10.1626C66.1809 10.1626 67.566 11.712 67.566 13.9953C67.566 16.2582 66.1809 17.8076 64.1391 17.8076Z" fill="#AAAAAA"/>
<path d="M77.4259 20.8554V1.17212H73.6502V20.8554H77.4259Z" fill="#AAAAAA"/>
<path d="M88.7838 7.13525L85.9315 15.9831L83.0485 7.13525H79.1907L84.1668 20.7433L82.1558 26.4006H85.7674L87.6963 20.7943L92.6724 7.13525H88.7838Z" fill="#AAAAAA"/>
<path d="M103.292 8.49085C102.532 7.54287 101.168 6.91089 99.5159 6.91089C95.5145 6.91089 93.1033 9.71405 93.1033 13.9851C93.1033 18.2561 95.5247 21.0592 99.5774 21.0592C101.178 21.0592 102.625 20.4578 103.333 19.4487V21.2427C103.333 22.5271 102.491 23.4241 101.352 23.4241H95.0425V26.3903H101.948C105.046 26.3903 107.108 24.5148 107.108 21.6504V7.11476H103.302V8.48066L103.292 8.49085ZM100.162 17.7974C98.1513 17.7974 96.8175 16.2989 96.8175 13.9851C96.8175 11.6712 98.1513 10.1524 100.162 10.1524C102.204 10.1524 103.538 11.6814 103.538 13.9851C103.538 16.2989 102.204 17.7974 100.162 17.7974Z" fill="#AAAAAA"/>
<path d="M116.619 21.0695C120.836 21.0695 123.853 18.0726 123.853 13.9953C123.853 9.91798 120.836 6.92114 116.619 6.92114C112.403 6.92114 109.386 9.91798 109.386 13.9953C109.386 18.0726 112.403 21.0695 116.619 21.0695ZM116.619 17.8076C114.578 17.8076 113.193 16.2582 113.193 13.9953C113.193 11.712 114.578 10.1626 116.619 10.1626C118.661 10.1626 120.046 11.712 120.046 13.9953C120.046 16.2582 118.661 17.8076 116.619 17.8076Z" fill="#AAAAAA"/>
<path d="M129.722 20.8554V13.3429C129.722 11.5693 130.891 10.2951 132.553 10.2951C134.133 10.2951 135.19 11.4878 135.19 13.1493V20.8554H138.997V12.3134C138.997 9.15348 136.986 6.92114 133.887 6.92114C132.01 6.92114 130.491 7.70603 129.732 9.04135V7.1352H125.925V20.8554H129.732H129.722Z" fill="#AAAAAA"/>
</g>
<defs>
<clipPath id="clip0_503_104">
<rect width="139" height="29" fill="white"/>
</clipPath>
</defs>
</svg>
