<svg width="143" height="30" viewBox="0 0 143 30" fill="none" xmlns="http://www.w3.org/2000/svg">
<path d="M44.992 24.24C44.016 24.24 43.144 24.048 42.376 23.664C41.624 23.264 41.016 22.736 40.552 22.08L42.496 20.304C42.768 20.72 43.112 21.04 43.528 21.264C43.944 21.488 44.4 21.6 44.896 21.6C45.44 21.6 45.904 21.488 46.288 21.264C46.672 21.04 46.968 20.72 47.176 20.304C47.384 19.888 47.488 19.392 47.488 18.816V7.2H50.248V18.6C50.248 19.72 50.024 20.704 49.576 21.552C49.144 22.4 48.536 23.064 47.752 23.544C46.968 24.008 46.048 24.24 44.992 24.24ZM58.6034 24.24C57.4834 24.24 56.4674 23.976 55.5554 23.448C54.6434 22.904 53.9154 22.176 53.3714 21.264C52.8434 20.352 52.5794 19.336 52.5794 18.216C52.5794 17.096 52.8434 16.088 53.3714 15.192C53.9154 14.296 54.6434 13.584 55.5554 13.056C56.4674 12.512 57.4834 12.24 58.6034 12.24C59.7394 12.24 60.7634 12.504 61.6754 13.032C62.5874 13.56 63.3074 14.28 63.8354 15.192C64.3794 16.088 64.6514 17.096 64.6514 18.216C64.6514 19.336 64.3794 20.352 63.8354 21.264C63.3074 22.176 62.5874 22.904 61.6754 23.448C60.7634 23.976 59.7394 24.24 58.6034 24.24ZM58.6034 21.696C59.2594 21.696 59.8354 21.552 60.3314 21.264C60.8434 20.96 61.2354 20.544 61.5074 20.016C61.7954 19.488 61.9394 18.888 61.9394 18.216C61.9394 17.544 61.7954 16.952 61.5074 16.44C61.2194 15.928 60.8274 15.528 60.3314 15.24C59.8354 14.936 59.2594 14.784 58.6034 14.784C57.9634 14.784 57.3874 14.936 56.8754 15.24C56.3794 15.528 55.9874 15.928 55.6994 16.44C55.4274 16.952 55.2914 17.544 55.2914 18.216C55.2914 18.888 55.4274 19.488 55.6994 20.016C55.9874 20.544 56.3794 20.96 56.8754 21.264C57.3874 21.552 57.9634 21.696 58.6034 21.696ZM73.0148 24.24C72.1348 24.24 71.3508 24.056 70.6628 23.688C69.9748 23.304 69.4308 22.784 69.0308 22.128C68.6468 21.472 68.4548 20.728 68.4548 19.896V16.584C68.4548 15.752 68.6548 15.008 69.0548 14.352C69.4548 13.696 69.9988 13.184 70.6868 12.816C71.3748 12.432 72.1508 12.24 73.0148 12.24C74.0548 12.24 74.9908 12.512 75.8228 13.056C76.6708 13.584 77.3348 14.304 77.8148 15.216C78.3108 16.112 78.5588 17.128 78.5588 18.264C78.5588 19.384 78.3108 20.4 77.8148 21.312C77.3348 22.208 76.6708 22.92 75.8228 23.448C74.9908 23.976 74.0548 24.24 73.0148 24.24ZM72.5828 21.744C73.2228 21.744 73.7828 21.6 74.2628 21.312C74.7588 21.008 75.1428 20.592 75.4148 20.064C75.7028 19.536 75.8468 18.928 75.8468 18.24C75.8468 17.552 75.7028 16.944 75.4148 16.416C75.1428 15.888 74.7588 15.48 74.2628 15.192C73.7828 14.888 73.2228 14.736 72.5828 14.736C71.9428 14.736 71.3748 14.888 70.8788 15.192C70.3828 15.48 69.9988 15.888 69.7268 16.416C69.4548 16.944 69.3188 17.552 69.3188 18.24C69.3188 18.928 69.4548 19.536 69.7268 20.064C69.9988 20.592 70.3828 21.008 70.8788 21.312C71.3748 21.6 71.9428 21.744 72.5828 21.744ZM66.8468 24V6.72H69.4868V15.312L69.0308 18.096L69.4868 20.904V24H66.8468ZM79.3047 27.24V24.96H90.8487V27.24H79.3047ZM100.219 24V17.352C100.219 16.584 99.9714 15.952 99.4754 15.456C98.9954 14.96 98.3714 14.712 97.6034 14.712C97.0914 14.712 96.6354 14.824 96.2354 15.048C95.8354 15.272 95.5234 15.584 95.2994 15.984C95.0754 16.384 94.9634 16.84 94.9634 17.352L93.9314 16.776C93.9314 15.896 94.1234 15.12 94.5074 14.448C94.8914 13.76 95.4194 13.224 96.0914 12.84C96.7794 12.44 97.5474 12.24 98.3954 12.24C99.2594 12.24 100.027 12.432 100.699 12.816C101.371 13.2 101.899 13.736 102.283 14.424C102.667 15.096 102.859 15.88 102.859 16.776V24H100.219ZM92.3234 24V6.72H94.9634V24H92.3234ZM110.27 24.24C109.294 24.24 108.422 24.024 107.654 23.592C106.902 23.16 106.31 22.568 105.878 21.816C105.462 21.048 105.254 20.168 105.254 19.176V12.48H107.894V19.056C107.894 19.616 107.982 20.096 108.158 20.496C108.35 20.88 108.622 21.176 108.974 21.384C109.342 21.592 109.774 21.696 110.27 21.696C111.038 21.696 111.622 21.472 112.022 21.024C112.438 20.56 112.646 19.904 112.646 19.056V12.48H115.286V19.176C115.286 20.184 115.07 21.072 114.638 21.84C114.222 22.592 113.638 23.184 112.886 23.616C112.134 24.032 111.262 24.24 110.27 24.24ZM125.837 24V17.352C125.837 16.584 125.589 15.952 125.093 15.456C124.613 14.96 123.989 14.712 123.221 14.712C122.709 14.712 122.253 14.824 121.853 15.048C121.453 15.272 121.141 15.584 120.917 15.984C120.693 16.384 120.581 16.84 120.581 17.352L119.549 16.776C119.549 15.896 119.741 15.12 120.125 14.448C120.509 13.76 121.037 13.224 121.709 12.84C122.397 12.44 123.165 12.24 124.013 12.24C124.877 12.24 125.645 12.464 126.317 12.912C126.989 13.344 127.517 13.912 127.901 14.616C128.285 15.304 128.477 16.024 128.477 16.776V24H125.837ZM117.941 24V12.48H120.581V24H117.941ZM132.771 24V7.68H135.411V24H132.771ZM130.011 14.88V12.48H138.171V14.88H130.011Z" fill="black"/>
<path d="M0 3.75C0 1.67893 1.67893 0 3.75 0C18.2475 0 30 11.7525 30 26.25C30 28.3211 28.3211 30 26.25 30H5C2.23858 30 0 27.7614 0 25V3.75Z" fill="#4348DB"/>
</svg>
