<svg width="16" height="19" viewBox="0 0 16 19" fill="none" xmlns="http://www.w3.org/2000/svg">
<path d="M15.9834 15.6103C15.9834 16.5093 15.6327 17.3715 15.0084 18.0072C14.3841 18.6429 13.5374 19 12.6546 19C11.7718 19 10.9251 18.6429 10.3008 18.0072C9.67654 17.3715 9.32583 16.5093 9.32583 15.6103C9.32717 15.1902 9.4033 14.7739 9.55052 14.3815L5.71411 11.8731C5.25223 12.3563 4.65932 12.6882 4.01119 12.8265C3.36306 12.9647 2.68917 12.903 2.07568 12.6491C1.4622 12.3953 0.937005 11.9609 0.567254 11.4015C0.197503 10.8421 0 10.1831 0 9.50873C0 8.8344 0.197503 8.1754 0.567254 7.61599C0.937005 7.05658 1.4622 6.62218 2.07568 6.36833C2.68917 6.11449 3.36306 6.05274 4.01119 6.19098C4.65932 6.32922 5.25223 6.66117 5.71411 7.14438L9.55052 4.63597C9.4033 4.24358 9.32717 3.82725 9.32583 3.40719C9.32379 2.61883 9.59098 1.85427 10.0817 1.24447C10.5723 0.634661 11.2559 0.217555 12.0154 0.0645875C12.7749 -0.0883801 13.563 0.0323091 14.2446 0.405984C14.9263 0.779659 15.4592 1.38307 15.7521 2.11286C16.0449 2.84266 16.0794 3.65342 15.8498 4.4063C15.6201 5.15918 15.1405 5.80732 14.4932 6.23971C13.8458 6.67211 13.071 6.86185 12.3014 6.77643C11.5317 6.69102 10.8152 6.33578 10.2745 5.77154L6.43812 8.27995C6.73759 9.07075 6.73759 9.9467 6.43812 10.7375L10.2745 13.2459C10.7367 12.7646 11.3292 12.4343 11.9764 12.2971C12.6236 12.16 13.2963 12.2222 13.9087 12.4758C14.5211 12.7294 15.0454 13.163 15.4149 13.7212C15.7844 14.2794 15.9823 14.9371 15.9834 15.6103Z" fill="black"/>
</svg>
