<svg width="13" height="13" viewBox="0 0 13 13" fill="none" xmlns="http://www.w3.org/2000/svg">
<path d="M5.59 7.67L4.17625 6.25625C4.05708 6.13708 3.91083 6.0775 3.7375 6.0775C3.56417 6.0775 3.4125 6.1425 3.2825 6.2725C3.16333 6.39167 3.10375 6.54333 3.10375 6.7275C3.10375 6.91167 3.16333 7.06333 3.2825 7.1825L5.135 9.035C5.25417 9.15417 5.40583 9.21375 5.59 9.21375C5.77417 9.21375 5.92583 9.15417 6.045 9.035L9.73375 5.34625C9.85292 5.22708 9.9125 5.08083 9.9125 4.9075C9.9125 4.73417 9.8475 4.5825 9.7175 4.4525C9.59833 4.33333 9.44667 4.27375 9.2625 4.27375C9.07833 4.27375 8.92667 4.33333 8.8075 4.4525L5.59 7.67ZM6.5 13C5.60083 13 4.75583 12.8293 3.965 12.4878C3.17417 12.1468 2.48625 11.6838 1.90125 11.0988C1.31625 10.5138 0.853233 9.82583 0.5122 9.035C0.170733 8.24417 0 7.39917 0 6.5C0 5.60083 0.170733 4.75583 0.5122 3.965C0.853233 3.17417 1.31625 2.48625 1.90125 1.90125C2.48625 1.31625 3.17417 0.853017 3.965 0.51155C4.75583 0.170517 5.60083 0 6.5 0C7.39917 0 8.24417 0.170517 9.035 0.51155C9.82583 0.853017 10.5138 1.31625 11.0988 1.90125C11.6838 2.48625 12.1468 3.17417 12.4878 3.965C12.8293 4.75583 13 5.60083 13 6.5C13 7.39917 12.8293 8.24417 12.4878 9.035C12.1468 9.82583 11.6838 10.5138 11.0988 11.0988C10.5138 11.6838 9.82583 12.1468 9.035 12.4878C8.24417 12.8293 7.39917 13 6.5 13Z" fill="#4348DB"/>
</svg>
